# xmcd
#
# Track frame offsets:
#	150
#	15405
#	33867
#	61357
#	83382
#	101857
#
# Disc length: 1614 seconds
#
# Revision: 0
# Processed by: cddbd v1.5.1PL0 Copyright (c) Steve Scherf et al.
# Submitted via: dBpowerAMP V4.0
#
DISCID=39064c06
DTITLE=Kenny Chesney - promo
DYEAR=1900
DGENRE=country
TTITLE0=She's got it all
TTITLE1=While the world goes down the drain
TTITLE2=Every little kiss
TTITLE3=Georgia
TTITLE4=Carlene
TTITLE5=Back where I come from
EXTD=No shoes, no shirt, no problem tour - GM promo
EXTT0=
EXTT1=
EXTT2=
EXTT3=
EXTT4=
EXTT5=
PLAYORDER=
